<?xml version="1.0" standalone="no"?>
<!DOCTYPE svg PUBLIC "-//W3C//DTD SVG 20010904//EN"
 "http://www.w3.org/TR/2001/REC-SVG-20010904/DTD/svg10.dtd">
<svg version="1.0" xmlns="http://www.w3.org/2000/svg"
 width="170.000000pt" height="170.000000pt" viewBox="0 0 170.000000 170.000000"
 preserveAspectRatio="xMidYMid meet">

<g transform="translate(0.000000,170.000000) scale(0.100000,-0.100000)"
fill="#000000" stroke="none">
<path d="M765 1478 c-85 -50 -235 -184 -279 -248 -15 -23 -16 -23 -5 -2 6 13
9 25 7 26 -8 6 -119 56 -126 57 -4 0 -16 6 -27 12 -38 22 -56 16 -73 -22 -40
-96 -4 -218 93 -316 68 -68 126 -108 245 -167 93 -47 114 -62 45 -34 -21 9
-35 11 -37 4 -2 -5 -50 -13 -107 -17 -96 -6 -105 -5 -142 17 -65 39 -44 17 27
-28 203 -128 571 -191 540 -92 -8 23 -73 68 -183 127 -223 119 -288 222 -201
320 58 67 179 119 430 185 70 19 125 36 123 38 -2 3 -24 0 -49 -7 -43 -11 -44
-10 -86 28 -23 21 -59 44 -79 50 -25 7 -42 20 -50 37 -9 21 -16 25 -36 20 -37
-9 -31 0 20 30 39 22 53 34 42 34 -2 0 -43 -24 -92 -52z"/>
<path d="M379 1433 c-13 -16 -12 -17 4 -4 9 7 17 15 17 17 0 8 -8 3 -21 -13z"/>
<path d="M320 1385 c-18 -19 -32 -37 -29 -39 2 -3 19 13 37 35 41 48 37 51 -8
4z"/>
<path d="M803 1080 c-49 -20 -17 -54 125 -129 137 -72 204 -122 243 -180 100
-151 -46 -265 -476 -371 -93 -23 -195 -51 -225 -63 -68 -25 -151 -78 -186
-120 -33 -39 -70 -119 -80 -171 -7 -38 -6 -39 17 -33 13 4 61 7 107 7 46 0 81
4 78 9 -3 5 15 12 40 16 68 10 272 79 368 123 46 22 117 62 158 88 40 27 81
49 91 50 10 1 20 4 23 7 3 3 16 2 29 -3 17 -6 25 -5 28 4 9 23 71 5 75 -21 3
-21 54 -48 66 -36 3 4 6 3 6 0 0 -4 -17 -15 -37 -26 -21 -11 -34 -20 -29 -21
16 0 85 43 80 51 -3 5 1 6 9 4 23 -9 102 70 127 126 55 129 -9 275 -185 418
l-40 32 50 -33 c28 -18 55 -31 60 -29 6 1 19 4 30 6 53 7 76 18 71 34 -3 9 5
3 19 -14 14 -16 25 -25 25 -18 0 20 -103 114 -170 153 -157 94 -427 170 -497
140z m327 -703 c0 -2 -17 -19 -37 -38 l-38 -34 34 38 c33 34 41 42 41 34z"/>
<path d="M738 63 c7 -3 16 -2 19 1 4 3 -2 6 -13 5 -11 0 -14 -3 -6 -6z"/>
<path d="M668 53 c7 -3 16 -2 19 1 4 3 -2 6 -13 5 -11 0 -14 -3 -6 -6z"/>
<path d="M503 33 c9 -2 25 -2 35 0 9 3 1 5 -18 5 -19 0 -27 -2 -17 -5z"/>
</g>
</svg>
